<!-- modern_landing_background.svg -->
<svg xmlns="http://www.w3.org/2000/svg" viewBox="0 0 1920 1080" width="1920" height="1080" preserveAspectRatio="xMidYMid slice" role="img" aria-label="Modern landing page background with emerald-teal-blue gradient and abstract wave shapes">
  <defs>
    <!-- Primary smooth background gradient (emerald -> teal -> blue) -->
    <linearGradient id="bgGrad" x1="0" y1="0" x2="1" y2="1">
      <stop offset="0%" stop-color="#0f8a63"/>
      <stop offset="50%" stop-color="#1aa79a"/>
      <stop offset="100%" stop-color="#0b6fb8"/>
    </linearGradient>

    <!-- Soft secondary gradient for layered shapes -->
    <linearGradient id="softGradA" x1="0" y1="0" x2="1" y2="0">
      <stop offset="0%" stop-color="#ffffff" stop-opacity="0.06"/>
      <stop offset="100%" stop-color="#ffffff" stop-opacity="0.00"/>
    </linearGradient>

    <linearGradient id="softGradB" x1="1" y1="0" x2="0" y2="1">
      <stop offset="0%" stop-color="#ffffff" stop-opacity="0.05"/>
      <stop offset="100%" stop-color="#ffffff" stop-opacity="0.00"/>
    </linearGradient>

    <!-- subtle radial vignette to focus center -->
    <radialGradient id="vignette" cx="50%" cy="40%" r="80%">
      <stop offset="0%" stop-color="#000000" stop-opacity="0.00"/>
      <stop offset="100%" stop-color="#000000" stop-opacity="0.12"/>
    </radialGradient>

    <!-- Rounded card mask for optional content placement (transparent center) -->
    <mask id="contentMask">
      <rect x="0" y="0" width="1920" height="1080" fill="white"/>
      <!-- a softened rounded panel area (this mask removes vignette/shapes inside) -->
      <rect x="120" y="120" width="1680" height="840" rx="28" ry="28" fill="black" opacity="0.0"/>
    </mask>

    <!-- gentle grain (vector) using tiny circles repeated: very subtle, low-opacity -->
    <pattern id="microDots" patternUnits="userSpaceOnUse" width="10" height="10">
      <circle cx="1" cy="1" r="0.6" fill="#ffffff" fill-opacity="0.02"/>
    </pattern>
  </defs>

  <!-- base gradient background -->
  <rect x="0" y="0" width="1920" height="1080" rx="0" ry="0" fill="url(#bgGrad)"/>

  <!-- soft rotated overlay to add depth -->
  <g opacity="0.12" transform="rotate(-8 960 540)">
    <rect x="-200" y="-200" width="2320" height="720" rx="80" fill="url(#softGradA)"/>
  </g>

  <!-- large smooth wave (foreground left) -->
  <path d="M0,420 C240,360 480,300 760,340 C1040,380 1280,500 1560,480 C1780,465 1920,420 1920,420 L1920,1080 L0,1080 Z"
        fill="#ffffff" fill-opacity="0.035" />

  <!-- middle translucent wave (center-right) -->
  <path d="M0,560 C220,500 500,460 780,520 C1060,580 1300,620 1560,600 C1770,585 1920,560 1920,560 L1920,1080 L0,1080 Z"
        fill="#ffffff" fill-opacity="0.03" />

  <!-- elevated emerald accent shape with rounded corners -->
  <path d="M120 860
           Q260 760 420 780
           T720 780
           C920 780 1060 820 1240 760
           Q1480 680 1700 740
           L1700 920
           Q1200 980 720 980
           Q360 980 120 920 Z"
        fill="#0b6fb8" fill-opacity="0.045" />

  <!-- soft translucent panel near top-right for highlight -->
  <g transform="translate(1120,80)">
    <rect x="0" y="0" width="700" height="420" rx="28" fill="url(#softGradB)" opacity="0.14"/>
    <!-- subtle inner shape -->
    <path d="M24,300 C120,220 260,200 380,240 C500,280 620,320 676,300 L676,380 C520,420 160,420 24,380 Z"
          fill="#ffffff" fill-opacity="0.02"/>
  </g>

  <!-- clustered abstract rounded blobs (left area) -->
  <g transform="translate(60,120)" opacity="0.12">
    <ellipse cx="120" cy="40" rx="90" ry="36" fill="#ffffff"/>
    <ellipse cx="220" cy="160" rx="140" ry="60" fill="#ffffff" opacity="0.06"/>
    <ellipse cx="360" cy="60" rx="64" ry="28" fill="#ffffff" opacity="0.05"/>
  </g>

  <!-- faint vector 'grid' lines (very subtle) -->
  <g stroke="#ffffff" stroke-opacity="0.02" stroke-width="1" fill="none">
    <path d="M80 220 L420 220" />
    <path d="M120 260 L460 260" />
    <path d="M160 300 L500 300" />
  </g>

  <!-- subtle radial vignette overlay to anchor content -->
  <rect x="0" y="0" width="1920" height="1080" fill="url(#vignette)" />

  <!-- micro grain for tactile feel -->
  <rect x="0" y="0" width="1920" height="1080" fill="url(#microDots)" opacity="0.04"/>

  <!-- optional mask area that keeps center cleaner for content (transparent) -->
  <!-- NOTE: this rect is fully transparent but marked for designers as a visual guide if needed; it has no stroke or fill visible. -->
  <rect x="120" y="120" width="1680" height="840" rx="28" ry="28" fill="none"/>

</svg>
