<svg width="152" height="148" viewBox="0 0 152 148" fill="none" xmlns="http://www.w3.org/2000/svg">
<path d="M57.1267 126.816C55.1137 126.816 53.3516 125.272 53.3516 123.252V118.856C53.3516 116.956 54.9875 115.292 57.1267 115.292H94.1202C96.1332 115.292 97.8953 116.837 97.8953 118.856V123.252C97.8953 125.152 96.2594 126.816 94.1202 126.816H57.1267Z" fill="#406CCC"/>
<path d="M3.77512 126.816C1.76212 126.816 0 125.272 0 123.252V118.856C0 116.956 1.63587 115.292 3.77512 115.292H40.7686C42.7816 115.292 44.5437 116.837 44.5437 118.856V123.252C44.5437 125.152 42.9079 126.816 40.7686 126.816H3.77512Z" fill="#406CCC"/>
<path d="M57.1267 147.727C55.1137 147.727 53.3516 146.183 53.3516 144.163V139.768C53.3516 137.867 54.9875 136.203 57.1267 136.203H94.1202C96.1332 136.203 97.8953 137.748 97.8953 139.768V144.163C97.8953 146.064 96.2594 147.727 94.1202 147.727H57.1267Z" fill="#406CCC"/>
<path d="M110.478 126.816C108.465 126.816 106.703 125.272 106.703 123.252V118.856C106.703 116.956 108.339 115.292 110.478 115.292H147.472C149.485 115.292 151.247 116.837 151.247 118.856V123.252C151.247 125.152 149.611 126.816 147.472 126.816H110.478Z" fill="#406CCC"/>
<path d="M110.478 105.908C108.465 105.908 106.703 104.363 106.703 102.343V97.948C106.703 96.0473 108.339 94.3836 110.478 94.3836H147.472C149.485 94.3836 151.247 95.9281 151.247 97.948V102.343C151.247 104.244 149.611 105.908 147.472 105.908H110.478Z" fill="#406CCC"/>
<path d="M57.1267 105.908C55.1137 105.908 53.3516 104.363 53.3516 102.343V97.948C53.3516 96.0473 54.9875 94.3836 57.1267 94.3836H94.1202C96.1332 94.3836 97.8953 95.9281 97.8953 97.948L97.8941 102.343C97.8941 104.244 96.2582 105.908 94.1189 105.908H57.1267Z" fill="#406CCC"/>
<path d="M110.478 84.9994C108.465 84.9994 106.703 83.4548 106.703 81.435V77.0396C106.703 75.139 108.339 73.4752 110.478 73.4752H147.472C149.485 73.4752 151.247 75.0198 151.247 77.0396V81.435C151.247 83.3357 149.611 84.9994 147.472 84.9994H110.478Z" fill="#406CCC"/>
<path d="M110.478 147.727C108.465 147.727 106.703 146.183 106.703 144.163V139.768C106.703 137.867 108.339 136.203 110.478 136.203H147.472C149.485 136.203 151.247 137.748 151.247 139.768V144.163C151.247 146.064 149.611 147.727 147.472 147.727H110.478Z" fill="#406CCC"/>
<path d="M3.77512 147.727C1.76212 147.727 0 146.183 0 144.163V139.768C0 137.867 1.63587 136.203 3.77512 136.203H40.7686C42.7816 136.203 44.5437 137.748 44.5437 139.768V144.163C44.5437 146.064 42.9079 147.727 40.7686 147.727H3.77512Z" fill="#406CCC"/>
<path d="M137.654 32.724L132.622 1.47769C132.245 0.408275 131.112 -0.185951 129.98 0.0521998L99.2777 12.5254C97.3909 13.0005 97.1386 15.3763 98.7745 16.3267L107.457 20.8413C97.2646 35.8107 84.3051 49.4734 69.4565 61.4718C52.9731 74.8967 34.2245 86.1824 14.5961 95.9236C13.5896 96.3988 13.0863 97.5873 13.4634 98.6567C13.9667 99.8452 15.2254 100.438 16.4829 99.9631C37.6218 92.5976 58.2588 83.4492 77.51 71.5691C95.5033 60.4011 112.237 46.8585 126.332 30.7002L134.511 34.9767C136.271 35.9281 138.284 34.3836 137.654 32.7199L137.654 32.724Z" fill="#406CCC"/>
</svg>
