<!-- save as kepegawaian_team_clipboard.svg -->
<svg xmlns="http://www.w3.org/2000/svg" width="128" height="128" viewBox="0 0 128 128" role="img" aria-label="Kepegawaian icon: clipboard with checklist and team" preserveAspectRatio="xMidYMid meet">
  <!-- clipboard body -->
  <rect x="20" y="16" width="88" height="96" rx="12" ry="12" fill="#1E88E5"/>
  <!-- clipboard top clip -->
  <rect x="44" y="6" width="40" height="16" rx="6" fill="#1565C0"/>
  <rect x="48" y="10" width="32" height="8" rx="4" fill="#E3F2FD"/>
  
  <!-- paper -->
  <rect x="30" y="28" width="68" height="70" rx="8" fill="#FFFFFF"/>

  <!-- checklist lines -->
  <g fill="none" stroke="#B0CBEF" stroke-width="3" stroke-linecap="round" transform="translate(34,36)">
    <line x1="26" y1="6" x2="60" y2="6"/>
    <line x1="26" y1="24" x2="60" y2="24"/>
    <line x1="26" y1="42" x2="60" y2="42"/>
  </g>

  <!-- checklist boxes -->
  <g transform="translate(30,34)">
    <rect x="2" y="2" width="16" height="16" rx="3" fill="#F1F7FF" stroke="#90CAF9" stroke-width="2"/>
    <path d="M6 10 l4 4 l6 -8" fill="none" stroke="#43A047" stroke-width="3" stroke-linecap="round" stroke-linejoin="round"/>
  </g>
  <g transform="translate(30,52)">
    <rect x="2" y="2" width="16" height="16" rx="3" fill="#F1F7FF" stroke="#90CAF9" stroke-width="2"/>
  </g>
  <g transform="translate(30,70)">
    <rect x="2" y="2" width="16" height="16" rx="3" fill="#F1F7FF" stroke="#90CAF9" stroke-width="2"/>
    <path d="M6 10 l4 4 l6 -8" fill="none" stroke="#43A047" stroke-width="3" stroke-linecap="round" stroke-linejoin="round"/>
  </g>

  <!-- team icons (people at bottom) -->
  <g transform="translate(40,100)">
    <!-- person 1 -->
    <circle cx="0" cy="0" r="8" fill="#42A5F5"/>
    <rect x="-10" y="6" width="20" height="10" rx="5" fill="#42A5F5"/>
    <!-- person 2 -->
    <circle cx="24" cy="0" r="8" fill="#66BB6A"/>
    <rect x="14" y="6" width="20" height="10" rx="5" fill="#66BB6A"/>
    <!-- person 3 -->
    <circle cx="48" cy="0" r="8" fill="#FFA726"/>
    <rect x="38" y="6" width="20" height="10" rx="5" fill="#FFA726"/>
  </g>

  <!-- shadow -->
  <ellipse cx="64" cy="118" rx="34" ry="6" fill="#000" opacity="0.06"/>
</svg>
