<svg width="142" height="130" viewBox="0 0 142 130" fill="none" xmlns="http://www.w3.org/2000/svg">
<path d="M113.968 29.9142C111.01 29.9142 108.174 28.8377 106.082 26.923C103.991 25.007 102.816 22.4084 102.816 19.6989C102.816 16.9895 103.989 14.3909 106.081 12.4749C108.172 10.5578 111.007 9.48129 113.965 9.48129C116.923 9.48129 119.759 10.5567 121.85 12.4725C123.942 14.3884 125.116 16.9871 125.116 19.6966C125.114 22.4047 123.939 25.0023 121.848 26.9171C119.758 28.8331 116.924 29.9107 113.968 29.9142ZM113.968 14.1226C112.353 14.1215 110.805 14.7087 109.664 15.7542C108.522 16.7997 107.88 18.2182 107.88 19.6978C107.88 21.1762 108.521 22.5948 109.664 23.6403C110.805 24.6858 112.353 25.273 113.967 25.273C115.58 25.273 117.129 24.6858 118.27 23.6391C119.411 22.5936 120.052 21.1751 120.052 19.6967C120.049 18.2183 119.408 16.802 118.267 15.7566C117.127 14.7122 115.58 14.1238 113.968 14.1226Z" fill="#406CCC"/>
<path d="M27.8607 29.9142C24.9023 29.9142 22.0658 28.8377 19.9745 26.923C17.8833 25.007 16.7084 22.4084 16.7084 19.6989C16.7084 16.9895 17.8821 14.3909 19.9733 12.4749C22.0645 10.5578 24.8995 9.48129 27.8582 9.48129C30.8153 9.48129 33.6518 10.5567 35.7431 12.4725C37.8343 14.3884 39.0092 16.9871 39.0092 19.6966C39.0067 22.4047 37.8317 25.0023 35.7405 26.9171C33.6505 28.8331 30.8164 29.9107 27.8607 29.9142ZM27.8607 14.1226C26.2458 14.1215 24.6975 14.7087 23.5563 15.7542C22.4152 16.7997 21.773 18.2182 21.773 19.6978C21.773 21.1762 22.4139 22.5948 23.5563 23.6403C24.6975 24.6858 26.2458 25.273 27.8594 25.273C29.4731 25.273 31.0214 24.6858 32.1626 23.6391C33.3037 22.5936 33.9446 21.1751 33.9446 19.6967C33.9421 18.2183 33.2999 16.802 32.1601 15.7566C31.0189 14.7122 29.473 14.1238 27.8607 14.1226Z" fill="#406CCC"/>
<path d="M113.968 108.805C111.01 108.805 108.174 107.728 106.082 105.813C103.991 103.897 102.816 101.299 102.816 98.5892C102.816 95.8798 103.989 93.2811 106.081 91.3652C108.172 89.4492 111.007 88.3716 113.965 88.3716C116.923 88.3716 119.759 89.447 121.85 91.3628C123.942 93.2787 125.116 95.8774 125.116 98.5869C125.114 101.295 123.939 103.893 121.848 105.807C119.758 107.723 116.924 108.801 113.968 108.805ZM113.968 93.0129C112.353 93.0118 110.805 93.599 109.664 94.6445C108.522 95.6911 107.88 97.1085 107.88 98.5881C107.88 100.067 108.521 101.485 109.664 102.531C110.805 103.576 112.353 104.163 113.967 104.163C115.58 104.163 117.129 103.576 118.27 102.529C119.411 101.484 120.052 100.065 120.052 98.587C120.049 97.1097 119.408 95.6923 118.267 94.648C117.127 93.6026 115.58 93.0141 113.968 93.0129Z" fill="#406CCC"/>
<path d="M27.8607 108.805C24.9023 108.805 22.0658 107.728 19.9745 105.813C17.8833 103.897 16.7084 101.299 16.7084 98.5892C16.7084 95.8798 17.8821 93.2811 19.9733 91.3652C22.0644 89.4492 24.8995 88.3716 27.8582 88.3716C30.8153 88.3716 33.6518 89.447 35.7431 91.3628C37.8343 93.2787 39.0092 95.8774 39.0092 98.5869C39.0067 101.295 37.8317 103.893 35.7405 105.807C33.6505 107.723 30.8164 108.801 27.8607 108.805ZM27.8607 93.0129C26.2458 93.0118 24.6975 93.599 23.5563 94.6445C22.4152 95.6911 21.773 97.1085 21.773 98.5881C21.773 100.067 22.4139 101.485 23.5563 102.531C24.6975 103.576 26.2458 104.163 27.8594 104.163C29.4731 104.163 31.0214 103.576 32.1626 102.529C33.3037 101.484 33.9446 100.065 33.9446 98.587C33.9421 97.1097 33.2999 95.6923 32.1601 94.648C31.0189 93.6026 29.473 93.0141 27.8607 93.0129Z" fill="#406CCC"/>
<path d="M136.56 40.4048C141.764 33.8072 143.214 25.3283 140.462 17.5884C137.71 9.84857 131.088 3.7794 122.64 1.25565C114.192 -1.26826 104.937 0.0581752 97.7349 4.82493C80.5462 -1.60915 61.2863 -1.60797 44.0996 4.82838C36.8971 0.0603026 27.6426 -1.26849 19.1947 1.25439C10.7454 3.77599 4.12106 9.84524 1.369 17.586C-1.38454 25.3259 0.0657443 33.8047 5.26995 40.4036C-1.75659 56.1492 -1.75659 73.7914 5.26995 89.5376C0.0656799 96.1364 -1.38467 104.616 1.369 112.356C4.12254 120.096 10.7467 126.165 19.1947 128.687C27.6439 131.21 36.8984 129.881 44.0996 125.113C61.287 131.55 80.545 131.55 97.7317 125.114C104.933 129.881 114.187 131.21 122.635 128.688C131.082 126.165 137.706 120.098 140.46 112.359C143.214 104.62 141.767 96.1408 136.564 89.5423C143.587 73.7943 143.585 56.1515 136.56 40.4053L136.56 40.4048ZM136.731 66.2128C134.495 65.8754 132.203 66.3498 130.341 67.5358C129.988 67.7188 129.491 67.9802 129.261 68.1069C129.067 66.853 128.99 65.5864 129.028 64.3209C129.068 60.3242 128.695 56.3334 127.91 52.4013C127.561 50.7087 127.189 49.3443 126.868 48.1641L126.859 48.1307H126.86C129.008 47.0933 130.999 45.8037 132.783 44.2953C135.427 50.9195 136.775 57.9177 136.765 64.9714C136.765 65.3859 136.741 65.7983 136.731 66.2128ZM125.542 43.4848L125.541 43.486C122.042 45.3985 118.044 46.4083 113.971 46.4083C109.897 46.4083 105.899 45.3985 102.4 43.486V38.7468C102.335 37.6287 103.266 36.6719 104.485 36.6029H123.456C124.675 36.6719 125.606 37.6288 125.541 38.7468L125.542 43.4848ZM136.765 25.5249C136.762 30.8133 134.56 35.9026 130.605 39.7552V38.7465C130.637 36.9791 129.901 35.2716 128.562 34.0003C127.221 32.728 125.385 31.9957 123.456 31.9623H104.485C102.556 31.9956 100.72 32.728 99.38 34.0003C98.0391 35.2714 97.3039 36.9788 97.3353 38.7465V39.7552C92.1889 34.7062 90.1029 27.6516 91.7643 20.9122C93.427 14.1742 98.62 8.6253 105.635 6.09359C112.65 3.56164 120.579 4.37338 126.811 8.26401C133.042 12.1534 136.77 18.6163 136.765 25.5249ZM81.2956 5.39353C85.4304 5.9888 89.4923 6.94908 93.4257 8.25942C92.6415 8.89616 91.6989 9.3475 90.681 9.57432C87.8721 10.0637 84.0203 8.01196 81.2956 5.39353ZM74.4917 4.73376C77.0705 9.00546 83.0767 13.8437 89.0161 14.2466C85.7837 20.233 85.2458 27.1413 87.5143 33.489C89.784 39.8356 94.6814 45.1127 101.153 48.1868C107.625 51.2612 115.154 51.8852 122.123 49.9277C122.383 50.8937 122.662 51.9577 122.932 53.2668H122.933C123.659 56.9283 124.003 60.6438 123.961 64.3652C124.003 68.1971 124.033 71.2243 127.15 72.4458C127.728 72.6761 128.35 72.7947 128.98 72.7947C130.363 72.7026 131.697 72.28 132.846 71.5684C134.07 70.9317 134.874 70.5459 135.712 70.7486C135.974 70.812 136.219 70.9213 136.432 71.0722C135.892 76.0531 134.669 80.9526 132.793 85.655C128.922 82.3678 124.108 80.1627 118.915 79.3002C113.723 78.4366 108.369 78.9525 103.485 80.7844C105.022 76.531 105.563 70.4978 97.9193 66.5795H97.918C94.6139 65.047 91.5185 63.1608 88.6986 60.9616C87.8704 60.2903 87.1553 59.6536 86.4955 59.0652H86.4942C84.5161 56.8844 81.8054 55.3633 78.7853 54.7393C78.0375 54.6264 77.2797 54.5723 76.5219 54.5781C75.666 54.593 74.8102 54.5055 73.9795 54.3156C72.4073 53.9252 70.8829 53.3887 69.4312 52.7116L68.7136 52.4053C66.1712 51.4497 63.3636 51.2551 60.6929 51.8504C59.7278 51.9816 58.6595 52.1313 57.3965 52.2154C52.6259 52.5147 49.1233 48.7254 46.5961 45.9469C46.3033 45.6245 46.0356 45.3401 45.7654 45.0511H45.7642C49.8926 41.8757 52.929 37.6729 54.5087 32.9508C56.4969 32.6883 58.5554 32.4143 60.6618 32.0815C66.0858 31.2226 76.1099 25.9953 75.9274 19.0613H75.9262C75.5743 16.7193 74.0096 14.6778 71.726 13.5793C69.6775 12.1987 68.4145 11.2361 68.1317 9.53895H68.1329C68.0186 8.48771 68.2511 7.42839 68.8003 6.49818C69.083 5.9075 69.3143 5.29726 69.494 4.67319C69.9678 4.66397 70.439 4.63979 70.9154 4.63979C72.1131 4.63979 73.3044 4.67434 74.492 4.73191L74.4917 4.73376ZM88.3675 94.3711C87.391 95.2611 86.5515 95.9451 86.0023 96.3711L84.3597 97.6492C79.5338 100.971 75.3037 104.963 71.8223 109.48C70.0766 111.849 68.928 114.542 68.4554 117.366C68.3712 117.743 68.2694 118.197 68.1689 118.569C65.6139 116.535 63.9034 113.755 63.3265 110.699C62.8201 107.569 63.5615 104.375 65.414 101.703C67.514 98.7097 68.2329 95.0747 67.4122 91.5974C66.1278 88.1304 63.4119 85.2624 59.8465 83.6087C57.0502 82.2927 54.8005 80.173 53.4434 77.5752C52.5775 75.8401 52.438 73.8757 53.0501 72.0532C53.828 69.4556 53.6784 66.6991 52.624 64.1857C50.8218 59.5986 45.0068 54.8523 35.3739 50.0798C37.5381 49.5248 39.6204 48.7315 41.5746 47.7159C41.9202 48.0694 42.2972 48.4724 42.7044 48.9226C45.5635 52.066 50.4207 57.3844 57.7539 56.8444C59.169 56.7534 60.3679 56.5911 61.4486 56.4414V56.4402C63.1691 55.9923 65.0014 56.0672 66.6715 56.6532L67.2434 56.9008V56.8996C69.0179 57.7229 70.884 58.37 72.8083 58.8306C74.0072 59.1012 75.2388 59.2324 76.4744 59.2209C76.9544 59.2117 77.4345 59.2428 77.9083 59.313C79.7733 59.6124 80.8642 60.5255 82.9643 62.393C83.6743 63.0274 84.446 63.7137 85.3383 64.4391C88.4286 66.8605 91.8204 68.9389 95.4437 70.6302C100.791 73.3718 100.048 77.2671 97.1202 82.6625C96.9317 83.0113 96.7645 83.3199 96.6326 83.5824C96.3674 84.1075 96.0897 84.6072 95.8107 85.1012H95.8119C92.5947 87.6343 90.0498 90.8042 88.3668 94.3711L88.3675 94.3711ZM39.4295 43.4862C35.9307 45.3987 31.9329 46.4085 27.8598 46.4085C23.7854 46.4085 19.7877 45.3987 16.2889 43.4862V38.747C16.2235 37.629 17.1548 36.6721 18.3738 36.6031H37.3445C38.5636 36.6722 39.4948 37.629 39.4295 38.747V43.4862ZM63.1254 10.234C63.8115 13.2161 65.8462 15.7909 68.7228 17.3175C69.6704 17.9565 70.8492 18.7521 70.8593 19.1759C70.9585 22.8961 63.5464 26.9169 59.8011 27.5097C58.3672 27.7354 56.9609 27.9323 55.5746 28.1188V28.1199C55.6701 27.2575 55.7179 26.3917 55.7179 25.5258C55.7154 19.1342 53.0825 12.9789 48.3458 8.28807C53.3979 6.59318 58.661 5.47863 64.0136 4.96963C63.1653 6.6081 62.8574 8.43781 63.1251 10.2338L63.1254 10.234ZM27.8608 4.6415C33.8166 4.63344 39.5385 6.7647 43.7988 10.5771C48.0592 14.3908 50.5188 19.5813 50.6481 25.0367C50.7788 30.4922 48.5695 35.7773 44.4951 39.7566V38.7479C44.5265 36.9805 43.7913 35.273 42.4503 34.0017C41.1106 32.7293 39.2745 31.997 37.3455 31.9636H18.3748C16.4457 31.997 14.6096 32.7293 13.2699 34.0017C11.929 35.2728 11.1938 36.9802 11.2252 38.7479V39.7566C7.15082 35.7773 4.94152 30.4922 5.07214 25.0367C5.20158 19.5813 7.66105 14.3908 11.9214 10.5771C16.1817 6.76467 21.9049 4.63354 27.8608 4.6415ZM5.0657 104.419C5.04937 97.4997 8.77426 91.0232 15.0116 87.1232C21.2489 83.2235 29.1889 82.407 36.2141 84.9424C43.2407 87.479 48.4398 93.0381 50.0973 99.7863C51.755 106.536 49.6575 113.6 44.4947 118.649V117.64C44.5262 115.873 43.791 114.165 42.45 112.894C41.1103 111.622 39.2742 110.889 37.3452 110.856H18.3745C16.4453 110.889 14.6093 111.622 13.2696 112.894C11.9286 114.165 11.1935 115.872 11.2249 117.64V118.649C7.26986 114.796 5.06796 109.707 5.06539 104.419L5.0657 104.419ZM16.2898 122.381V117.641C16.2245 116.523 17.1557 115.566 18.3748 115.497H37.3455C38.5645 115.566 39.4958 116.523 39.4304 117.641V122.38C35.9316 124.292 31.9338 125.302 27.8608 125.302C23.7864 125.302 19.7886 124.292 16.2898 122.38V122.381ZM48.3471 121.656C54.9049 115.143 57.3002 105.978 54.6723 97.4517C52.0444 88.9242 44.7705 82.2599 35.4642 79.8535C26.1566 77.4458 16.1531 79.6405 9.04612 85.6497C3.74019 72.2934 3.74019 57.6508 9.04612 44.2945C14.0969 48.5697 20.7014 50.9726 27.5783 51.036C29.1957 52.1322 30.8937 53.1235 32.6606 54.0031C41.1147 58.1539 46.5113 62.3278 47.861 65.7567L47.8622 65.7579C48.5911 67.4516 48.6753 69.3228 48.1023 71.0672C47.2791 73.7995 47.5053 76.708 48.7445 79.3055C50.4549 82.8022 53.3819 85.6797 57.0679 87.491C59.6995 89.0731 61.7796 90.3235 62.526 92.8256C63.216 95.1296 62.3928 96.8338 60.8734 99.6468V99.6456C58.5183 103.216 57.6246 107.437 58.3511 111.556C59.1718 115.861 61.6929 119.738 65.4343 122.448C66.397 123.081 67.5444 123.437 68.7294 123.468C69.0323 123.469 69.3339 123.441 69.6293 123.382C72.4092 122.834 72.971 120.316 73.4208 118.29C73.7677 116.105 74.6323 114.015 75.9532 112.167C78.806 108.412 82.2709 105.079 86.2295 102.288C86.1654 102.992 86.1113 103.699 86.1113 104.418C86.1139 110.809 88.7467 116.964 93.4847 121.656C78.9066 126.517 62.9257 126.516 48.3463 121.655L48.3471 121.656ZM102.401 122.381V117.641C102.335 116.523 103.267 115.566 104.486 115.497H123.456C124.675 115.566 125.607 116.523 125.541 117.641V122.38C122.042 124.292 118.045 125.302 113.972 125.302C109.897 125.302 105.899 124.292 102.401 122.38V122.381ZM130.606 118.65V117.641C130.637 115.873 129.902 114.166 128.562 112.894C127.221 111.622 125.385 110.89 123.456 110.856H104.486C102.556 110.89 100.72 111.622 99.3807 112.894C98.0397 114.165 97.3045 115.873 97.3359 117.641V118.649C93.2616 114.665 91.0536 109.377 91.1829 103.918C91.3123 98.4589 93.7706 93.2649 98.0296 89.4456C102.289 85.6276 108.012 83.4894 113.972 83.4894C119.931 83.4894 125.653 85.6275 129.912 89.4456C134.173 93.2649 136.63 98.4589 136.76 103.918C136.89 109.377 134.68 114.665 130.606 118.649L130.606 118.65Z" fill="#406CCC"/>
</svg>
